<?xml version="1.0" standalone="no"?>
<!DOCTYPE svg PUBLIC "-//W3C//DTD SVG 20010904//EN"
 "http://www.w3.org/TR/2001/REC-SVG-20010904/DTD/svg10.dtd">
<svg version="1.0" xmlns="http://www.w3.org/2000/svg"
 width="1024.000000pt" height="1024.000000pt" viewBox="0 0 1024.000000 1024.000000"
 preserveAspectRatio="xMidYMid meet">

<g transform="translate(0.000000,1024.000000) scale(0.100000,-0.100000)"
fill="#000000" stroke="none">
<path d="M4738 9825 c-456 -65 -851 -235 -1238 -536 -114 -88 -333 -299 -439
-424 -384 -449 -665 -1008 -821 -1634 -38 -154 -73 -326 -86 -428 l-7 -53
-192 0 c-226 0 -313 -13 -418 -64 -124 -60 -221 -156 -283 -281 -68 -138 -64
54 -64 -2735 0 -2810 -5 -2592 70 -2749 72 -150 222 -271 390 -316 83 -22
6667 -22 6750 0 175 46 328 175 404 340 55 119 50 -92 53 2688 4 2834 8 2627
-63 2775 -51 105 -168 223 -274 274 -110 54 -197 68 -409 68 -179 0 -181 0
-185 23 -3 12 -17 87 -31 167 -128 722 -444 1414 -876 1915 -449 522 -994 849
-1589 955 -160 29 -539 37 -692 15z m597 -244 c254 -38 429 -93 670 -211 256
-126 445 -261 668 -480 502 -490 848 -1167 1001 -1958 14 -72 26 -143 26 -157
l0 -25 -597 2 -597 3 -37 133 c-176 613 -547 1086 -996 1269 -769 314 -1573
-232 -1872 -1272 l-37 -130 -597 -3 c-585 -2 -597 -2 -597 17 0 38 50 292 84
423 168 656 475 1222 895 1652 227 232 450 395 716 526 236 116 413 172 660
210 169 26 439 26 610 1z m-40 -1615 c339 -102 621 -367 825 -778 62 -125 170
-421 158 -433 -3 -3 -563 -4 -1245 -3 l-1241 3 25 85 c38 133 125 341 193 460
220 384 528 629 867 690 26 5 111 7 188 6 117 -3 155 -8 230 -30z m3107 -1493
c82 -39 142 -99 182 -183 l31 -65 3 -2529 c2 -2813 8 -2598 -66 -2706 -45 -66
-103 -111 -177 -139 l-56 -21 -3312 2 -3312 3 -63 34 c-75 41 -135 103 -170
179 l-27 57 -3 2540 c-2 2521 -2 2540 18 2605 36 118 121 203 239 241 53 17
207 18 3351 16 l3295 -2 67 -32z"/>
<path d="M4840 5510 c-223 -58 -404 -208 -500 -415 -158 -337 -43 -749 268
-955 l23 -15 -175 -545 c-96 -300 -173 -546 -172 -547 2 -2 336 -2 743 -1
l739 3 -173 540 c-95 297 -173 543 -173 546 0 3 17 18 38 32 108 77 224 225
271 344 54 138 65 335 26 478 -70 258 -286 468 -549 535 -105 27 -262 26 -366
0z"/>
</g>
</svg>
